<?xml version="1.0" encoding="utf-8"?>
<!-- Generator: Adobe Illustrator 22.0.0, SVG Export Plug-In . SVG Version: 6.00 Build 0)  -->
<svg version="1.1" id="logo" xmlns="http://www.w3.org/2000/svg" xmlns:xlink="http://www.w3.org/1999/xlink" x="0px" y="0px"
	 viewBox="0 0 1080 214.8" style="enable-background:new 0 0 1080 214.8;" xml:space="preserve">
<style type="text/css">
	.st0{display:none;}
	.st1{display:inline;fill:#00E215;}
	.st2{fill:#FFFFFF;}
	.st3{fill:#9727EE;}
	.st4{opacity:0.2;}
	.st5{clip-path:url(#SVGID_2_);}
	.st6{fill:#0F0F0F;}
</style>
<g class="st0">
	<path class="st1" d="M360.8,225.1l-23.7,52.1h-6.2l-23.6-52.1H322l11.9,27.9l11.9-27.9H360.8z"/>
	<path class="st1" d="M431.4,225.1h13.7v51.5h-13.7V225.1z"/>
	<path class="st1" d="M564.5,250.9c0,16-10.7,25.7-28.2,25.7h-16.8v-51.5l16.8,0C553.8,225,564.5,234.8,564.5,250.9z M550.8,250.9
		c0-8.1-5.6-13-14.9-13h-3.1v25.8h3.3C545.2,263.7,550.8,258.9,550.8,250.9z"/>
	<path class="st1" d="M650.2,237.8v7.2h16.4v11.4h-16.4v7.4h19.9v12.8h-33.4v-51.5h33.4v12.7H650.2z"/>
	<path class="st1" d="M740.9,250.9c0-15.5,12.3-27.2,28.3-27.2c16,0,28.3,11.7,28.3,27.2c0,15.3-12.3,27-28.3,27
		C753.1,277.9,740.9,266.2,740.9,250.9z M783.6,250.8c0-8-6.3-14.1-14.4-14.1s-14.4,6.1-14.4,14.1c0,7.9,6.3,14,14.4,14
		S783.6,258.7,783.6,250.8z"/>
</g>
<g>
	<g>
		<path class="st2" d="M177.3,0.6v214.2h-56.7v-80.7H56.9v80.7H0V0.6h56.9V81h63.7V0.6H177.3z"/>
		<path class="st3" d="M199.6,108c0-61.4,48.7-108,112.3-108s112.3,46.6,112.3,108c0,60.9-48.7,107.2-112.4,107.2
			C248.2,215.3,199.6,168.9,199.6,108z"/>
		<path class="st2" d="M353.2,88.7c0,1.9-0.5,3.6-1.3,5.2l-0.6,1l-14.7,25.5l-14,24.2c0,0,0,0,0,0l-2.5,4.3c-2.1,2.2-5,3.6-8.3,3.6
			c-3.3,0-6.2-1.4-8.2-3.6l-2.5-4.4l-14-24.2l-14.3-24.7l-1.5-2.7c-0.5-1.3-0.8-2.7-0.8-4.2c0-6.2,5-11.3,11.3-11.3h60.1
			C348.1,77.5,353.2,82.5,353.2,88.7z"/>
		<g class="st4">
			<defs>
				<path id="SVGID_1_" class="st4" d="M199.6,108c0-61.4,48.7-108,112.3-108s112.3,46.6,112.3,108c0,60.9-48.7,107.2-112.4,107.2
					C248.2,215.3,199.6,168.9,199.6,108z"/>
			</defs>
			<clipPath id="SVGID_2_">
				<use xlink:href="#SVGID_1_"  style="overflow:visible;"/>
			</clipPath>
			<path class="st5" d="M156.2,81.5c10.4,7.1,71.3,47,152,30c81.5-17.2,121.1-79.4,127.6-90.1C447,82,458.2,142.5,469.4,203
				l-181.9,50.1l-98.4,8.2L156.2,81.5z"/>
		</g>
		<path class="st2" d="M571,0.6v132.5c0,17.1-15.2,28.8-30.9,28.8c-15.8,0-30.6-11.5-30.6-28.8V0.6h-55.7v132.6
			c0,47.8,38.8,81.6,86.5,81.6c47.7,0,86.5-33.7,86.5-81.6V0.6H571z"/>
		<path class="st2" d="M650.3,176.4l33.5-32.8c8.7,12.8,24.8,20.6,42.3,20.6c11.8,0,23.3-4.3,23.3-12.8c0-10.7-21.3-20.2-41.8-29.2
			c-26.4-11.4-49-28.7-49-60.1c0-36.1,34.3-61.8,73.8-61.8c31.8,0,56.6,15,64.8,35.6l-31.9,30.8c-6.2-11-22.2-15.8-32.2-15.8
			c-11.4,0-19.5,5.8-19.5,12.9c0,9.6,14.7,12.7,37.2,22.1c32.6,13.7,54.2,33.6,54.2,64.4c0,39.7-37,64.4-78.7,64.4
			C691.9,214.6,660.7,199.4,650.3,176.4z"/>
		<path class="st2" d="M886.4,53.4v29.9h68v47.4h-68v30.7h82.6v53.2H830.2V0.6h138.7v52.8H886.4z"/>
	</g>
	<g>
		<path class="st3" d="M1015.4,184.3c0-16.5,14.7-29.9,32.1-29.9c17.8,0,32.6,14.1,32.6,30.5c0,16.7-14.7,29.9-32.3,29.9
			C1030,214.8,1015.4,201.2,1015.4,184.3z"/>
		<path class="st6" d="M1036.3,199.7c-2,0-3.5-0.6-4.6-1.7c-1.1-1.1-1.6-2.7-1.6-4.7v-12.8h-2.3c-0.3,0-0.6-0.1-0.8-0.3
			c-0.2-0.2-0.3-0.5-0.3-0.9v-2.7l3.7,0l0-7.2h5.2v7.2h6.1v3.9h-6.1V193c0,0.7,0.2,1.3,0.5,1.7c0.3,0.4,0.8,0.6,1.4,0.6
			c0.3,0,0.6,0,0.9-0.1c0.2-0.1,0.4-0.2,0.6-0.3c0.2-0.1,0.3-0.2,0.5-0.3c0.1-0.1,0.3-0.1,0.4-0.1c0.2,0,0.3,0,0.4,0.1
			c0.1,0.1,0.2,0.2,0.3,0.4l1.7,2.7c-0.8,0.7-1.7,1.2-2.8,1.5C1038.5,199.6,1037.4,199.7,1036.3,199.7z"/>
		<path class="st6" d="M1068.7,176.5l-9.1,22.9h-5l-9.1-22.9h4.6c0.4,0,0.8,0.1,1,0.3c0.3,0.2,0.5,0.4,0.5,0.7l4.4,12.2
			c0.2,0.7,0.4,1.4,0.6,2.1c0.2,0.7,0.3,1.4,0.5,2.1c0.1-0.7,0.3-1.4,0.5-2.1c0.2-0.7,0.4-1.4,0.6-2.1l4.5-12.2
			c0.1-0.3,0.3-0.5,0.6-0.7c0.3-0.2,0.6-0.3,1-0.3H1068.7z"/>
	</g>
</g>
</svg>
