<?xml version="1.0" encoding="utf-8"?>
<!-- Generator: Adobe Illustrator 22.0.0, SVG Export Plug-In . SVG Version: 6.00 Build 0)  -->
<svg version="1.1" id="Capa_1" xmlns="http://www.w3.org/2000/svg" xmlns:xlink="http://www.w3.org/1999/xlink" x="0px" y="0px"
	 viewBox="0 0 24 24" style="enable-background:new 0 0 24 24;" xml:space="preserve">
<style type="text/css">
	.st0{fill:#FFD600;}
</style>
<path class="st0" d="M21.9,9.2c-0.1-0.4-0.5-0.6-0.9-0.7l-5.7-0.5l-2.5-5.5c-0.2-0.5-0.8-0.7-1.3-0.5c-0.2,0.1-0.4,0.3-0.5,0.5
	L8.6,8.1L2.9,8.5C2.4,8.5,2,9,2,9.6c0,0.2,0.1,0.5,0.3,0.6l4.2,4.1L5,20.8c-0.1,0.5,0.2,1.1,0.7,1.2C6,22,6.3,22,6.6,21.8l5.4-3.6
	l5.4,3.6c0.5,0.3,1.1,0.2,1.4-0.3C19,21.3,19,21,19,20.7l-1.8-6.4l4.5-4.1C22,10,22.1,9.6,21.9,9.2z"/>
</svg>
