<?xml version="1.0" encoding="utf-8"?>
<!-- Generator: Adobe Illustrator 22.0.0, SVG Export Plug-In . SVG Version: 6.00 Build 0)  -->
<svg version="1.1"
	 id="Layer_1_1_" inkscape:version="1.0.2 (e86c870879, 2021-01-15)" sodipodi:docname="Hbo-max_color_2019.svg" xmlns:cc="http://creativecommons.org/ns#" xmlns:dc="http://purl.org/dc/elements/1.1/" xmlns:inkscape="http://www.inkscape.org/namespaces/inkscape" xmlns:rdf="http://www.w3.org/1999/02/22-rdf-syntax-ns#" xmlns:sodipodi="http://sodipodi.sourceforge.net/DTD/sodipodi-0.dtd" xmlns:svg="http://www.w3.org/2000/svg"
	 xmlns="http://www.w3.org/2000/svg" xmlns:xlink="http://www.w3.org/1999/xlink" x="0px" y="0px" viewBox="0 0 1000 173.3"
	 style="enable-background:new 0 0 1000 173.3;" xml:space="preserve">
<style type="text/css">
	.st0{fill:#FFFFFF;}
	.st1{fill:url(#XMLID_3_);}
	.st2{clip-path:url(#SVGID_2_);fill:url(#ellipse3466_1_);}
	.st3{clip-path:url(#SVGID_4_);fill:url(#ellipse3473_1_);}
	.st4{clip-path:url(#SVGID_6_);fill:url(#circle3480_1_);}
</style>
<sodipodi:namedview  bordercolor="#666666" borderopacity="1" fit-margin-bottom="0" fit-margin-left="0" fit-margin-right="0" fit-margin-top="0" gridtolerance="10" guidetolerance="10" id="namedview3482" inkscape:current-layer="Layer_1_1_" inkscape:cx="672.48375" inkscape:cy="-80.975342" inkscape:document-rotation="0" inkscape:pageopacity="0" inkscape:pageshadow="2" inkscape:window-height="705" inkscape:window-maximized="1" inkscape:window-width="1366" inkscape:window-x="-8" inkscape:window-y="-8" inkscape:zoom="0.4505794" objecttolerance="10" pagecolor="#ffffff" showgrid="false">
	</sodipodi:namedview>
<g id="g52">
	<path id="path3441" inkscape:connector-curvature="0" class="st0" d="M123.2,172.5H77.1v-65.7H47.3v65.7H0V3h47.2v63.3H77V3h46.1
		L123.2,172.5L123.2,172.5z M334.4,173.3c47.2,0,85.7-39.3,85.7-87.1c0-48.5-38.5-86.1-85.7-86.1c-47.8,0-72,34.7-77.8,48.9
		c0-21-21-46.1-45.4-46.1h-78.7v169.6h73.3c29.8,0,50.8-25.5,50.8-47.8C263.3,138.5,286.7,173.3,334.4,173.3z M200,104.4
		c6.8,0,12.3,6.6,12.3,14.2c0,7.9-5.5,14.5-12.3,14.5h-23.5v-28.7L200,104.4z M200,40.7c6.8,0,12.3,6.6,12.3,14.2
		s-5.5,14.2-12.3,14.2h-23.5V40.7H200z M231,86.2c5.5-0.4,14.4-6.6,17.7-10.4c-1.3,4.5-1.3,18.9,0,23.5
		C245,93.7,236.4,87.2,231,86.2z M291.4,86.2c0-23.9,19.5-43.2,43.4-43.1c24,0.2,43.1,19.7,42.8,43.7c-0.4,23.6-19.5,42.6-43.1,42.6
		C310.7,129.5,291.4,110.2,291.4,86.2z M334.4,120.2c18.4,0,33.8-15.1,33.8-34s-15.5-33.8-33.8-33.8c-18.9,0-34,14.9-34,33.8
		S315.5,120.2,334.4,120.2z"/>
	<g id="g888" transform="matrix(0.90905968,0,0,0.90905968,236.44484,-18.188064)">
		
			<linearGradient id="XMLID_3_" gradientUnits="userSpaceOnUse" x1="-13.2463" y1="37.141" x2="606.1915" y2="37.141" gradientTransform="matrix(0.9091 0 0 -0.9091 232.5433 149.071)">
			<stop  offset="0" style="stop-color:#991EEB"/>
			<stop  offset="0.399" style="stop-color:#5822B4"/>
			<stop  offset="0.727" style="stop-color:#5822B4"/>
			<stop  offset="1" style="stop-color:#991EEB"/>
		</linearGradient>
		<path id="XMLID_1_" inkscape:connector-curvature="0" class="st1" d="M473.1,89.3c-1-45.2-33-69.1-72.2-69.1
			c-21.5,0-40.9,7.2-54.1,21.2c-13.2-14-32.6-21.2-54.1-21.2c-39.2,0-71.2,24-72.2,69.2c0,0.1,0,0.2,0,0.3v103.1
			c0,9.5,7.7,17.1,17.1,17.1h16.2c1.6,0,2.9-1.3,2.9-2.9V89.6l0,0c0.7-22.3,16.5-34.1,36-34.1s35.3,11.8,36,34.1l0,0v103.1
			c0,9.5,7.7,17.1,17.1,17.1H362c1.6,0,2.9-1.3,2.9-2.9V89.5l0,0c0.7-22.3,16.5-34.1,36-34.1c19.5,0,35.3,11.8,36,34.1l0,0v103.1
			c0,9.5,7.7,17.1,17.1,17.1h16.2c1.6,0,2.9-1.3,2.9-2.9L473.1,89.3C473.2,89.5,473.1,89.4,473.1,89.3L473.1,89.3z M837.8,23.1
			h-27.5c-7.6,0-14.7,3.8-19,10.1l-30.4,45c-4,5.9-12.6,5.9-16.6,0l-30.4-45c-4.2-6.3-11.4-10.1-19-10.1h-27.5
			c-1.7,0-2.7,1.9-1.8,3.3l54.2,80.4c3.9,5.8,3.9,13.4,0,19.2l-54.2,80.4c-1,1.4,0.1,3.3,1.8,3.3h27.5c7.6,0,14.7-3.8,19-10.1
			l30.4-45c4-5.9,12.6-5.9,16.6,0l30.4,45c4.2,6.3,11.4,10.1,19,10.1h27.5c1.7,0,2.7-1.9,1.8-3.3l-54.3-80.3
			c-3.9-5.8-3.9-13.4,0-19.2l54.2-80.4C840.5,25.1,839.5,23.1,837.8,23.1L837.8,23.1z M653.2,23.1H637c-8.2,0-15.1,5.8-16.8,13.5
			c-14.4-11-32.5-16.6-52-16.6c-47.4,0-85.9,33-85.9,95.3s38.4,95.3,85.9,95.3c19.4,0,37.3-5.5,51.7-16.3
			c0.8,8.7,8.1,15.6,17.1,15.6h16.2c1.6,0,2.9-1.3,2.9-2.9V26C656,24.4,654.8,23.1,653.2,23.1z M568.2,175.2
			c-28.3,0-51.3-20.7-51.3-59.8s23-59.8,51.3-59.8c28.3,0,51.3,20.7,51.3,59.8S596.5,175.2,568.2,175.2z"/>
		<g id="g3453" transform="translate(0,0.1)">
			<g>
				<defs>
					<path id="SVGID_1_" d="M473.1,89.2c-1-45.2-33-69.1-72.2-69.1c-21.5,0-40.9,7.2-54.1,21.2c-13.2-14-32.6-21.2-54.1-21.2
						c-39.2,0-71.2,24-72.2,69.2c0,0.1,0,0.2,0,0.3v103.1c0,9.5,7.7,17.1,17.1,17.1h16.2c1.6,0,2.9-1.3,2.9-2.9V89.5l0,0
						c0.7-22.3,16.5-34.1,36-34.1s35.3,11.8,36,34.1l0,0v103.1c0,9.5,7.7,17.1,17.1,17.1H362c1.6,0,2.9-1.3,2.9-2.9V89.4l0,0
						c0.7-22.3,16.5-34.1,36-34.1c19.5,0,35.3,11.8,36,34.1l0,0v103.1c0,9.5,7.7,17.1,17.1,17.1h16.2c1.6,0,2.9-1.3,2.9-2.9
						L473.1,89.2C473.2,89.4,473.1,89.3,473.1,89.2L473.1,89.2z M837.8,23h-27.5c-7.6,0-14.7,3.8-19,10.1l-30.4,45
						c-4,5.9-12.6,5.9-16.6,0l-30.4-45c-4.2-6.3-11.4-10.1-19-10.1h-27.5c-1.7,0-2.7,1.9-1.8,3.3l54.2,80.4c3.9,5.8,3.9,13.4,0,19.2
						l-54.2,80.4c-1,1.4,0.1,3.3,1.8,3.3h27.5c7.6,0,14.7-3.8,19-10.1l30.4-45c4-5.9,12.6-5.9,16.6,0l30.4,45
						c4.2,6.3,11.4,10.1,19,10.1h27.5c1.7,0,2.7-1.9,1.8-3.3L785.3,126c-3.9-5.8-3.9-13.4,0-19.2l54.2-80.4
						C840.5,25,839.5,23,837.8,23z M653.2,23H637c-8.2,0-15.1,5.8-16.8,13.5c-14.4-11-32.5-16.6-52-16.6c-47.4,0-85.9,33-85.9,95.3
						s38.4,95.3,85.9,95.3c19.4,0,37.3-5.5,51.7-16.3c0.8,8.7,8.1,15.6,17.1,15.6h16.2c1.6,0,2.9-1.3,2.9-2.9v-181
						C656,24.3,654.8,23,653.2,23z M568.2,175.1c-28.3,0-51.3-20.7-51.3-59.8s23-59.8,51.3-59.8c28.3,0,51.3,20.7,51.3,59.8
						S596.5,175.1,568.2,175.1z"/>
				</defs>
				<clipPath id="SVGID_2_">
					<use xlink:href="#SVGID_1_"  style="overflow:visible;"/>
				</clipPath>
				
					<radialGradient id="ellipse3466_1_" cx="-3270.8232" cy="112.8892" r="164.5963" gradientTransform="matrix(0.6109 0 0 -0.7952 2367.7087 169.9822)" gradientUnits="userSpaceOnUse">
					<stop  offset="0" style="stop-color:#7BA7F2;stop-opacity:0.5"/>
					<stop  offset="1" style="stop-color:#7BA7F2;stop-opacity:0"/>
				</radialGradient>
				<ellipse id="ellipse3466" class="st2" cx="369.6" cy="80.2" rx="110.6" ry="144"/>
			</g>
			<g>
				<defs>
					<path id="SVGID_3_" d="M473.1,89.2c-1-45.2-33-69.1-72.2-69.1c-21.5,0-40.9,7.2-54.1,21.2c-13.2-14-32.6-21.2-54.1-21.2
						c-39.2,0-71.2,24-72.2,69.2c0,0.1,0,0.2,0,0.3v103.1c0,9.5,7.7,17.1,17.1,17.1h16.2c1.6,0,2.9-1.3,2.9-2.9V89.5l0,0
						c0.7-22.3,16.5-34.1,36-34.1s35.3,11.8,36,34.1l0,0v103.1c0,9.5,7.7,17.1,17.1,17.1H362c1.6,0,2.9-1.3,2.9-2.9V89.4l0,0
						c0.7-22.3,16.5-34.1,36-34.1c19.5,0,35.3,11.8,36,34.1l0,0v103.1c0,9.5,7.7,17.1,17.1,17.1h16.2c1.6,0,2.9-1.3,2.9-2.9
						L473.1,89.2C473.2,89.4,473.1,89.3,473.1,89.2L473.1,89.2z M837.8,23h-27.5c-7.6,0-14.7,3.8-19,10.1l-30.4,45
						c-4,5.9-12.6,5.9-16.6,0l-30.4-45c-4.2-6.3-11.4-10.1-19-10.1h-27.5c-1.7,0-2.7,1.9-1.8,3.3l54.2,80.4c3.9,5.8,3.9,13.4,0,19.2
						l-54.2,80.4c-1,1.4,0.1,3.3,1.8,3.3h27.5c7.6,0,14.7-3.8,19-10.1l30.4-45c4-5.9,12.6-5.9,16.6,0l30.4,45
						c4.2,6.3,11.4,10.1,19,10.1h27.5c1.7,0,2.7-1.9,1.8-3.3L785.3,126c-3.9-5.8-3.9-13.4,0-19.2l54.2-80.4
						C840.5,25,839.5,23,837.8,23z M653.2,23H637c-8.2,0-15.1,5.8-16.8,13.5c-14.4-11-32.5-16.6-52-16.6c-47.4,0-85.9,33-85.9,95.3
						s38.4,95.3,85.9,95.3c19.4,0,37.3-5.5,51.7-16.3c0.8,8.7,8.1,15.6,17.1,15.6h16.2c1.6,0,2.9-1.3,2.9-2.9v-181
						C656,24.3,654.8,23,653.2,23z M568.2,175.1c-28.3,0-51.3-20.7-51.3-59.8s23-59.8,51.3-59.8c28.3,0,51.3,20.7,51.3,59.8
						S596.5,175.1,568.2,175.1z"/>
				</defs>
				<clipPath id="SVGID_4_">
					<use xlink:href="#SVGID_3_"  style="overflow:visible;"/>
				</clipPath>
				
					<radialGradient id="ellipse3473_1_" cx="271.9934" cy="21.9035" r="227.5552" gradientTransform="matrix(0.9091 0 0 -0.6437 232.5433 214.3069)" gradientUnits="userSpaceOnUse">
					<stop  offset="0.2" style="stop-color:#7BA7F2"/>
					<stop  offset="1" style="stop-color:#7BA7F2;stop-opacity:0"/>
				</radialGradient>
				<ellipse id="ellipse3473" class="st3" cx="479.8" cy="200.2" rx="227.6" ry="161.1"/>
			</g>
			<g>
				<defs>
					<path id="SVGID_5_" d="M473.1,89.2c-1-45.2-33-69.1-72.2-69.1c-21.5,0-40.9,7.2-54.1,21.2c-13.2-14-32.6-21.2-54.1-21.2
						c-39.2,0-71.2,24-72.2,69.2c0,0.1,0,0.2,0,0.3v103.1c0,9.5,7.7,17.1,17.1,17.1h16.2c1.6,0,2.9-1.3,2.9-2.9V89.5l0,0
						c0.7-22.3,16.5-34.1,36-34.1s35.3,11.8,36,34.1l0,0v103.1c0,9.5,7.7,17.1,17.1,17.1H362c1.6,0,2.9-1.3,2.9-2.9V89.4l0,0
						c0.7-22.3,16.5-34.1,36-34.1c19.5,0,35.3,11.8,36,34.1l0,0v103.1c0,9.5,7.7,17.1,17.1,17.1h16.2c1.6,0,2.9-1.3,2.9-2.9
						L473.1,89.2C473.2,89.4,473.1,89.3,473.1,89.2L473.1,89.2z M837.8,23h-27.5c-7.6,0-14.7,3.8-19,10.1l-30.4,45
						c-4,5.9-12.6,5.9-16.6,0l-30.4-45c-4.2-6.3-11.4-10.1-19-10.1h-27.5c-1.7,0-2.7,1.9-1.8,3.3l54.2,80.4c3.9,5.8,3.9,13.4,0,19.2
						l-54.2,80.4c-1,1.4,0.1,3.3,1.8,3.3h27.5c7.6,0,14.7-3.8,19-10.1l30.4-45c4-5.9,12.6-5.9,16.6,0l30.4,45
						c4.2,6.3,11.4,10.1,19,10.1h27.5c1.7,0,2.7-1.9,1.8-3.3L785.3,126c-3.9-5.8-3.9-13.4,0-19.2l54.2-80.4
						C840.5,25,839.5,23,837.8,23z M653.2,23H637c-8.2,0-15.1,5.8-16.8,13.5c-14.4-11-32.5-16.6-52-16.6c-47.4,0-85.9,33-85.9,95.3
						s38.4,95.3,85.9,95.3c19.4,0,37.3-5.5,51.7-16.3c0.8,8.7,8.1,15.6,17.1,15.6h16.2c1.6,0,2.9-1.3,2.9-2.9v-181
						C656,24.3,654.8,23,653.2,23z M568.2,175.1c-28.3,0-51.3-20.7-51.3-59.8s23-59.8,51.3-59.8c28.3,0,51.3,20.7,51.3,59.8
						S596.5,175.1,568.2,175.1z"/>
				</defs>
				<clipPath id="SVGID_6_">
					<use xlink:href="#SVGID_5_"  style="overflow:visible;"/>
				</clipPath>
				
					<radialGradient id="circle3480_1_" cx="425.6689" cy="129.8842" r="123.8" gradientTransform="matrix(0.9091 0 0 -0.9091 232.5433 148.8801)" gradientUnits="userSpaceOnUse">
					<stop  offset="0" style="stop-color:#7BA7F2"/>
					<stop  offset="1" style="stop-color:#7BA7F2;stop-opacity:0"/>
				</radialGradient>
				<circle id="circle3480" class="st4" cx="619.5" cy="30.8" r="123.8"/>
			</g>
		</g>
	</g>
</g>
</svg>
